<svg xmlns="http://www.w3.org/2000/svg" xml:space="preserve" viewBox="0 0 327.952 173.704">
  <defs>
    <clipPath id="a" clipPathUnits="userSpaceOnUse">
      <path d="M19.522 247.789h245.964v-18.445H19.522Z"/>
    </clipPath>
    <clipPath id="b" clipPathUnits="userSpaceOnUse">
      <path d="M187.353 333.509h21.018v-6.892h-21.018z"/>
    </clipPath>
    <clipPath id="c" clipPathUnits="userSpaceOnUse">
      <path d="M179.551 290.591h19.726v-34.037h-19.726z"/>
    </clipPath>
    <clipPath id="d" clipPathUnits="userSpaceOnUse">
      <path d="M143.729 290.591h19.726v-34.037h-19.726z"/>
    </clipPath>
    <clipPath id="e" clipPathUnits="userSpaceOnUse">
      <path d="M82.046 309.546h141.909v-67.77H82.045Z"/>
    </clipPath>
    <clipPath id="f" clipPathUnits="userSpaceOnUse">
      <path d="M46.284 287.344h50.06V252.32h-50.06Z"/>
    </clipPath>
    <clipPath id="g" clipPathUnits="userSpaceOnUse">
      <path d="M50.176 283.415h36.769V257.87h-36.77Z"/>
    </clipPath>
    <clipPath id="h" clipPathUnits="userSpaceOnUse">
      <path d="M34.236 316.591h77.025v-25.442H34.236Z"/>
    </clipPath>
  </defs>
  <g clip-path="url(#a)" opacity=".4" transform="matrix(1.33333 0 0 -1.33333 -26.03 479.496)">
    <path fill="#d8d8d8" d="M265.486 238.566c0-5.093-55.06-9.223-122.982-9.223-67.92 0-122.982 4.13-122.982 9.223 0 5.094 55.061 9.223 122.982 9.223 67.921 0 122.982-4.129 122.982-9.223"/>
  </g>
  <path fill="#63813a" d="M47.193 121.094c-21.223 0-38.427 17.204-38.427 38.425H85.62c0-21.221-17.204-38.425-38.427-38.425"/>
  <path fill="#b7c54c" d="M25.008 138.7c-11.499 0-20.82 9.32-20.82 20.82h41.64c0-11.5-9.321-20.82-20.82-20.82"/>
  <path fill="#b7c54c" d="M47.17 146.85c-6.997 0-12.67 5.672-12.67 12.67h25.34c0-6.998-5.673-12.67-12.67-12.67"/>
  <path fill="#eae5da" d="M251.798 90.74h-28.024V34.817h28.024z"/>
  <g clip-path="url(#b)" opacity=".6" transform="matrix(1.33333 0 0 -1.33333 -26.03 479.496)">
    <path fill="#cccbca" d="M208.37 333.509v-5.667l-21.017-1.225v6.892Z"/>
  </g>
  <path fill="#2f3040" d="M253.177 38.487h-30.772v-7.338h30.772z"/>
  <path fill="#63813a" d="M154.114 28.75c0 15.878-12.872 28.749-28.75 28.749s-28.75-12.871-28.75-28.75C96.614 12.872 109.486 0 125.364 0s28.75 12.872 28.75 28.75"/>
  <path fill="#63813a" d="M178.173 48.98c0 11.171-9.058 20.229-20.23 20.229-11.173 0-20.23-9.058-20.23-20.23s9.057-20.23 20.23-20.23c11.172 0 20.23 9.058 20.23 20.23"/>
  <path fill="#b7c54c" d="M146.886 57.5c0 29.958-24.287 54.245-54.246 54.245-29.958 0-54.245-24.287-54.245-54.246 0-29.958 24.287-54.245 54.245-54.245 29.959 0 54.246 24.287 54.246 54.245"/>
  <path fill="#b7c54c" d="M168.408 54.882c0 11.886-9.636 21.522-21.523 21.522-11.885 0-21.521-9.636-21.521-21.522 0-11.887 9.636-21.522 21.521-21.522 11.887 0 21.523 9.635 21.523 21.522"/>
  <path fill="#eae5da" d="M83.364 157.128h189.212V66.77H83.364Z"/>
  <path fill="#63849c" d="M252.4 137.424h-39.027V86.472H252.4z"/>
  <path fill="#fff" d="M254.884 83.988h-43.996v55.92h43.996V86.472zm-2.484 53.436h-39.028V86.472H252.4z"/>
  <path fill="#95b3c6" d="m249.582 86.472-36.203 36.224v-21.372l14.872-14.852Zm2.818 2.434v10.15l-38.369 38.369h-.658v-9.49z"/>
  <g clip-path="url(#c)" opacity=".22" transform="matrix(1.33333 0 0 -1.33333 -26.03 479.496)">
    <path fill="#95b3c6" d="M199.277 290.591h-19.726v-34.037h19.726z"/>
  </g>
  <path fill="#63849c" d="M204.637 137.424h-39.028V86.472h39.028Z"/>
  <path fill="#fff" d="M207.121 83.988h-43.996v55.92h43.996V86.472zm-2.484 53.436h-39.029V86.472h39.03z"/>
  <path fill="#95b3c6" d="m201.819 86.472-36.203 36.224v-21.372l14.872-14.852Zm2.819 2.434v10.15l-38.37 38.369h-.658v-9.49z"/>
  <g clip-path="url(#d)" opacity=".22" transform="matrix(1.33333 0 0 -1.33333 -26.03 479.496)">
    <path fill="#95b3c6" d="M163.455 290.591h-19.726v-34.037h19.726z"/>
  </g>
  <path fill="#ad6845" d="M155.46 146.033H130.8V99.36h24.66z"/>
  <path fill="#fff" d="M157.943 96.875h-29.627v51.641h29.627V99.358zm-2.484 49.159h-24.66V99.359h24.66z"/>
  <path fill="#c18e72" d="M154.254 146.033H130.8v-45.47h23.454z"/>
  <path fill="#c4bfb7" d="M150.648 94.128h-16.243v-2.085h16.243z"/>
  <g clip-path="url(#e)" opacity=".6" transform="matrix(1.33333 0 0 -1.33333 -26.03 479.496)">
    <path fill="#cccbca" d="M82.045 241.776h141.909v67.769H82.045Z"/>
  </g>
  <path fill="#efeae4" d="M231.376 128.672H122.314v-3.104h109.062z"/>
  <path fill="#2f2f3f" d="M177.97 40.72 81.34 68.161H274.6Z"/>
  <path fill="#2f3040" d="M108.092 64.437h139.755l-69.878-19.845Zm166.508 7.45H81.34a3.726 3.726 0 0 1-3.69-3.211 3.728 3.728 0 0 1 2.673-4.098l96.63-27.441a3.71 3.71 0 0 1 2.034 0l96.63 27.441a3.726 3.726 0 0 1-1.017 7.308"/>
  <path fill="#efeae4" d="M129.248 127.12h3.104v20.215h-3.104zm18.108 0h3.104v20.215h-3.104zm18.108 0h3.104v20.215h-3.104zm18.108 0h3.104v20.215h-3.104zm18.108 0h3.104v20.215h-3.104zm18.108 0h3.104v20.215h-3.104z"/>
  <path fill="#afa59a" d="M231.376 159.52H122.314v-12.185h109.062z"/>
  <path fill="#afa59a" d="M216.528 159.52h21.264v-6.092h-21.264z"/>
  <path fill="#eae5da" d="M122.319 82.208v82.423h-102.7V82.208l51.344-24.833z"/>
  <g clip-path="url(#f)" opacity=".6" transform="matrix(1.33333 0 0 -1.33333 -26.03 479.496)">
    <path fill="#cccbca" d="m47.425 287.344-1.141-35.024 50.06 1.14v33.884Z"/>
  </g>
  <path fill="#63849c" d="M101.06 135.66H40.879V97.437h60.183z"/>
  <path fill="#fff" d="M103.544 94.955H38.396v43.188h65.148V97.438zm-2.483 40.705H40.88V97.438h60.182z"/>
  <path fill="#95b3c6" d="m70.8 97.438-29.92 29.94v-19.681l10.276-10.259Zm14.17 0-38.202 38.223h-5.89v-3.459l34.784-34.764Z"/>
  <g clip-path="url(#g)" opacity=".22" transform="matrix(1.33333 0 0 -1.33333 -26.03 479.496)">
    <path fill="#95b3c6" d="M86.945 283.415H50.176v-25.544h36.769z"/>
  </g>
  <g clip-path="url(#h)" opacity=".6" transform="matrix(1.33333 0 0 -1.33333 -26.03 479.496)">
    <path fill="#cccbca" d="M111.261 297.966v-2.347l-77.025-4.47v6.817l38.508 18.625z"/>
  </g>
  <path fill="#ad6845" d="M151.753 124.152h-4.45a.621.621 0 1 1 0-1.242h4.45a.62.62 0 1 1 0 1.242"/>
  <path fill="#fff" d="M152.219 123.686h-4.45a.62.62 0 1 1 0-1.242h4.45a.62.62 0 0 1 0 1.242"/>
  <path fill="#42425a" d="M127.46 88.428c-.543 0-1.095-.12-1.62-.372l-54.874-26.54-54.873 26.54a3.727 3.727 0 0 1-3.246-6.708l56.498-27.322a3.722 3.722 0 0 1 3.244 0l56.497 27.322a3.73 3.73 0 0 1 1.732 4.976 3.728 3.728 0 0 1-3.357 2.104"/>
  <path fill="#c4bfb7" d="M43.069 148.51H26.826v-4.171H43.07zm8.121 4.917H34.948v-4.172H51.19zm53.807-4.007H88.754v-4.172h16.243Z"/>
  <path fill="#63813a" d="M301.004 151.872a11.872 11.872 0 0 0-3.903.302c-.8-3.91-4.088-7.002-8.272-7.367-.1-.01-.205-.016-.305-.02-.937-6.137-6.239-10.839-12.637-10.839-4.898 0-9.15 2.755-11.298 6.798 0-.002 0-.002-.004-.003a16.059 16.059 0 0 0-4.684-.695c-8.826 0-15.98 7.156-15.98 15.987 0 1.197.128 2.363.38 3.483h31.515l.07.001.068-.001h35.172a11.928 11.928 0 0 0-10.123-7.646"/>
  <path fill="#b7c54c" d="M289.179 139.764c-10.911 0-19.756 8.846-19.756 19.755h39.51c0-10.91-8.844-19.755-19.754-19.755"/>
  <path fill="#89847c" d="M122.314 164.632H19.618v-6.78h102.696z"/>
  <path fill="#b7c54c" d="M310.207 147.497c-6.638 0-12.022 5.383-12.022 12.023h24.045c0-6.64-5.384-12.023-12.023-12.023m-187.637 8.388c-6.537 0-11.836 5.3-11.836 11.838h23.672c0-6.538-5.299-11.838-11.836-11.838m24.785 8.067a7.54 7.54 0 0 0-7.541 7.541h15.084a7.542 7.542 0 0 0-7.543-7.541"/>
</svg>
