<svg xmlns="http://www.w3.org/2000/svg" viewBox="0 0 1002.094 139.804">
  <path d="M70.604.002a65.73 65.73 0 0 1 26.6 5.5 69.32 69.32 0 0 1 22 15.1 72.76 72.76 0 0 1 14.9 22.4 68.1 68.1 0 0 1 5.5 27.2 66.69 66.69 0 0 1-5.5 27 70.43 70.43 0 0 1-15.1 22.1 72.23 72.23 0 0 1-22.3 15 67.41 67.41 0 0 1-27.1 5.5 66.69 66.69 0 0 1-27-5.5 70.77 70.77 0 0 1-37.1-37.2 67.41 67.41 0 0 1-5.5-27.1 69 69 0 0 1 42.9-64.6 71 71 0 0 1 27.7-5.4zm-1.6 31.6a33.9 33.9 0 0 0-14.2 3 36.23 36.23 0 0 0-11.5 8.2 39.69 39.69 0 0 0-7.8 12.2 39.22 39.22 0 0 0 0 29.6 39.06 39.06 0 0 0 8 12.3 37.51 37.51 0 0 0 11.8 8.3 35.76 35.76 0 0 0 28.9-.1 39.43 39.43 0 0 0 11.9-8.3 37.74 37.74 0 0 0 8-12.3 39.61 39.61 0 0 0 2.9-15.1 36.47 36.47 0 0 0-3-14.7 38 38 0 0 0-20.1-20.1 37 37 0 0 0-14.9-3z" fill="#e50216"/>
  <path d="M187.084 3.202h35.8q15 0 24.7 3.6a49.51 49.51 0 0 1 27.6 27.4 47.89 47.89 0 0 1 3.5 17.8 50.61 50.61 0 0 1-2.2 14.4 49.68 49.68 0 0 1-6.2 13.4 41.08 41.08 0 0 1-7.3 8.3 72.3 72.3 0 0 1-10.5 7.1l29.2 41.4h-38.8l-23.2-38.4v38.4h-32.6zm40.6 67.8a17.82 17.82 0 0 0 13.1-5.3 18.05 18.05 0 0 0 5.3-13.3 17.24 17.24 0 0 0-5.3-12.8 18.22 18.22 0 0 0-13.3-5.2h-7.8v36.6zm100.48-67.8h32.6v133.4h-32.6zm88.42 81.4-8.4-31h8.4v-50.4h71.2v31h-38.6v19.4h35.4l8.8 31h-44.2v21h38.6v31h-71.2zm124.61-81.4h27.8l40.2 38.4v-38.4h32.6v133.4h-32.6v-51.8l-35.4-33.8v85.6h-32.6zm173.1 31h-29.4v-31h92.2v31h-30.2v102.4h-32.6zm106.26-31h32.6v133.4h-32.6zm86.94 0h35.8q15 0 24.7 3.6a49.51 49.51 0 0 1 27.6 27.4 47.89 47.89 0 0 1 3.5 17.8 50.26 50.26 0 0 1-2.2 14.4 49.38 49.38 0 0 1-6.2 13.4 41.08 41.08 0 0 1-7.3 8.3 72.3 72.3 0 0 1-10.5 7.1l29.2 41.4h-38.8l-23.2-38.4v38.4h-32.6zm40.6 67.8a17.82 17.82 0 0 0 13.1-5.3 18.05 18.05 0 0 0 5.3-13.3 17.24 17.24 0 0 0-5.3-12.8 18.22 18.22 0 0 0-13.3-5.2h-7.8v36.6z"/>
</svg>
