
<svg xmlns="http://www.w3.org/2000/svg" xml:space="preserve" viewBox="0 0 1158.8 554">
  <path fill="#e50216" d="M149 207.1c9.2 0 18.2 1.8 26.6 5.5 8.2 3.6 15.7 8.7 22 15.1 6.3 6.5 11.4 14.1 14.9 22.4 3.7 8.6 5.6 17.9 5.5 27.2.1 9.3-1.8 18.5-5.5 27-3.6 8.3-8.7 15.8-15.1 22.1-6.4 6.4-14 11.4-22.3 15-8.6 3.7-17.8 5.6-27.1 5.5-9.3.1-18.5-1.8-27-5.5-16.7-7.2-30-20.5-37.1-37.2-3.7-8.6-5.6-17.8-5.5-27.1-.3-28.3 16.7-53.9 42.9-64.6 8.7-3.6 18.2-5.5 27.7-5.4zm-1.6 31.6c-4.9 0-9.7 1-14.2 3-4.3 2-8.2 4.7-11.5 8.2-3.3 3.6-6 7.7-7.8 12.2-3.9 9.5-3.9 20.1 0 29.6 1.9 4.6 4.6 8.7 8 12.3 3.4 3.5 7.4 6.3 11.8 8.3 9.2 4 19.7 4 28.9-.1 4.4-2 8.5-4.8 11.9-8.3s6.2-7.7 8-12.3c1.9-4.8 2.9-9.9 2.9-15.1 0-5.1-1-10.1-3-14.7-3.8-9-11.1-16.3-20.1-20.1-4.7-2-9.8-3-14.9-3z"/>
    <path fill="#fff" d="M265.4 210.3h35.8c10 0 18.2 1.2 24.7 3.6 12.6 5 22.5 14.9 27.6 27.4 2.3 5.7 3.5 11.7 3.5 17.8 0 4.9-.8 9.7-2.2 14.4-1.4 4.8-3.5 9.3-6.2 13.4-2 3.1-4.5 5.9-7.3 8.3-3.3 2.7-6.8 5-10.5 7.1l29.2 41.4h-38.8L298 305.3v38.4h-32.6zm40.6 67.8c4.9.1 9.7-1.8 13.1-5.3 3.5-3.5 5.4-8.3 5.3-13.3.1-4.8-1.8-9.5-5.3-12.8-3.5-3.5-8.3-5.3-13.3-5.2H298v36.6zm100.5-67.8h32.6v133.4h-32.6zm88.4 81.4-8.4-31h8.4v-50.4h71.2v31h-38.6v19.4h35.4l8.8 31h-44.2v21h38.6v31h-71.2zm124.6-81.4h27.8l40.2 38.4v-38.4h32.6v133.4h-32.6v-51.8l-35.4-33.8v85.6h-32.6zm173.1 31h-29.4v-31h92.2v31h-30.2v102.4h-32.6zm106.3-31h32.6v133.4h-32.6zm86.9 0h35.8c10 0 18.2 1.2 24.7 3.6 12.6 5 22.5 14.9 27.6 27.4 2.3 5.7 3.5 11.7 3.5 17.8 0 4.9-.8 9.7-2.2 14.4-1.4 4.8-3.5 9.3-6.2 13.4-2 3.1-4.5 5.9-7.3 8.3-3.3 2.7-6.8 5-10.5 7.1l29.2 41.4h-38.8l-23.2-38.4v38.4h-32.6zm40.6 67.8c4.9.1 9.7-1.8 13.1-5.3 3.5-3.5 5.4-8.3 5.3-13.3.1-4.8-1.8-9.5-5.3-12.8-3.5-3.5-8.3-5.3-13.3-5.2h-7.8v36.6z"/>
    <path fill="none" stroke="#fff" stroke-miterlimit="10" stroke-width="10" d="M5 5h1148.8v544H5z"/>
</svg>
